<svg xmlns="http://www.w3.org/2000/svg" xmlns:xlink="http://www.w3.org/1999/xlink" width="100" zoomAndPan="magnify" viewBox="0 0 75 74.999997" height="100" preserveAspectRatio="xMidYMid meet" version="1.0"><defs><g/><clipPath id="50f61e5534"><path d="M 3.632812 16 L 38 16 L 38 46.375 L 3.632812 46.375 Z M 3.632812 16 " clip-rule="nonzero"/></clipPath><clipPath id="a1d94197d7"><path d="M 37 0.625 L 71.882812 0.625 L 71.882812 31 L 37 31 Z M 37 0.625 " clip-rule="nonzero"/></clipPath><clipPath id="8a4823dfa6"><path d="M 65 63 L 69 63 L 69 72 L 65 72 Z M 65 63 " clip-rule="nonzero"/></clipPath><clipPath id="ee7e240d0a"><path d="M 65.449219 64.261719 L 67.023438 63.921875 L 68.558594 71.074219 L 66.984375 71.414062 Z M 65.449219 64.261719 " clip-rule="nonzero"/></clipPath><clipPath id="36bc059a78"><path d="M 62 65 L 67 65 L 67 74 L 62 74 Z M 62 65 " clip-rule="nonzero"/></clipPath><clipPath id="d5dd0e9844"><path d="M 64.558594 73.050781 L 62.996094 72.664062 L 64.753906 65.5625 L 66.316406 65.949219 Z M 64.558594 73.050781 " clip-rule="nonzero"/></clipPath><clipPath id="999e813c8e"><path d="M 64 67 L 68 67 L 68 75 L 64 75 Z M 64 67 " clip-rule="nonzero"/></clipPath><clipPath id="64e5efe157"><path d="M 67.003906 75.953125 L 64.835938 75.996094 L 64.660156 67.707031 L 66.828125 67.660156 Z M 67.003906 75.953125 " clip-rule="nonzero"/></clipPath><clipPath id="6ea4a10758"><path d="M 64 67 L 69 67 L 69 72 L 64 72 Z M 64 67 " clip-rule="nonzero"/></clipPath><clipPath id="3d4bcc0f4c"><path d="M 67.839844 67.070312 L 68.492188 70.761719 L 64.796875 71.414062 L 64.148438 67.71875 Z M 67.839844 67.070312 " clip-rule="nonzero"/></clipPath></defs><rect x="-7.5" width="90" fill="#ffffff" y="-7.5" height="89.999996" fill-opacity="1"/><rect x="-7.5" width="90" fill="#15172e" y="-7.5" height="89.999996" fill-opacity="1"/><g clip-path="url(#50f61e5534)"><path fill="#e0e0e0" d="M 26.59375 37.695312 L 26.59375 41.84375 L 7.796875 33.113281 L 7.796875 29.746094 L 26.59375 21.015625 L 26.59375 25.167969 L 12.378906 31.390625 L 12.378906 31.46875 Z M 37.753906 16.402344 L 6.324219 16.402344 C 4.839844 16.402344 3.636719 17.605469 3.636719 19.089844 L 3.636719 43.769531 C 3.636719 45.253906 4.839844 46.457031 6.324219 46.457031 L 29.027344 46.457031 L 37.753906 16.402344 " fill-opacity="1" fill-rule="nonzero"/></g><g clip-path="url(#a1d94197d7)"><path fill="#0d9353" d="M 67.65625 17.472656 L 48.863281 26.085938 L 48.863281 21.933594 L 63.390625 15.710938 L 63.390625 15.632812 L 48.863281 9.40625 L 48.863281 5.253906 L 67.65625 13.867188 Z M 46.480469 0.644531 L 37.753906 30.695312 L 69.132812 30.695312 C 70.617188 30.695312 71.820312 29.492188 71.820312 28.007812 L 71.820312 3.328125 C 71.820312 1.847656 70.617188 0.644531 69.132812 0.644531 L 46.480469 0.644531 " fill-opacity="1" fill-rule="nonzero"/></g><g fill="#ffffff" fill-opacity="1"><g transform="translate(0.14518, 73.702018)"><g><path d="M 2.25 0 L 2.25 -14.9375 L 4.0625 -14.9375 L 3.953125 -1.609375 L 9.359375 -1.65625 L 9.359375 0 Z M 2.25 0 "/></g></g></g><g fill="#ffffff" fill-opacity="1"><g transform="translate(10.677104, 73.702018)"><g><path d="M 9.203125 -0.0625 C 8.585938 0.164062 7.867188 0.28125 7.046875 0.28125 C 6.234375 0.28125 5.519531 0.164062 4.90625 -0.0625 C 4.289062 -0.289062 3.71875 -0.6875 3.1875 -1.25 C 2.09375 -2.382812 1.546875 -4.46875 1.546875 -7.5 C 1.546875 -10.53125 2.09375 -12.601562 3.1875 -13.71875 C 3.71875 -14.257812 4.289062 -14.644531 4.90625 -14.875 C 5.519531 -15.101562 6.234375 -15.21875 7.046875 -15.21875 C 7.867188 -15.21875 8.585938 -15.101562 9.203125 -14.875 C 9.816406 -14.644531 10.390625 -14.257812 10.921875 -13.71875 C 12.015625 -12.601562 12.5625 -10.53125 12.5625 -7.5 C 12.5625 -4.46875 12.015625 -2.382812 10.921875 -1.25 C 10.390625 -0.6875 9.816406 -0.289062 9.203125 -0.0625 Z M 4.953125 -13.171875 C 4.484375 -12.898438 4.117188 -12.316406 3.859375 -11.421875 C 3.609375 -10.523438 3.484375 -9.300781 3.484375 -7.75 C 3.484375 -6.207031 3.546875 -5.035156 3.671875 -4.234375 C 3.804688 -3.429688 4.035156 -2.816406 4.359375 -2.390625 C 4.679688 -1.972656 5.039062 -1.695312 5.4375 -1.5625 C 5.84375 -1.4375 6.4375 -1.375 7.21875 -1.375 C 8.007812 -1.375 8.640625 -1.503906 9.109375 -1.765625 C 10.128906 -2.316406 10.640625 -4.207031 10.640625 -7.4375 C 10.640625 -10.6875 10.140625 -12.597656 9.140625 -13.171875 C 8.660156 -13.453125 7.960938 -13.59375 7.046875 -13.59375 C 6.128906 -13.59375 5.429688 -13.453125 4.953125 -13.171875 Z M 4.953125 -13.171875 "/></g></g></g><g fill="#ffffff" fill-opacity="1"><g transform="translate(25.722383, 73.702018)"><g><path d="M 4.625 -1.984375 C 5.019531 -1.523438 5.785156 -1.296875 6.921875 -1.296875 C 8.066406 -1.296875 8.90625 -1.398438 9.4375 -1.609375 L 9.4375 -6.34375 L 7.15625 -6.453125 L 7.15625 -7.78125 L 11.15625 -7.78125 L 11.15625 -0.5625 C 10.070312 0 8.722656 0.28125 7.109375 0.28125 C 6.472656 0.28125 5.894531 0.21875 5.375 0.09375 C 4.851562 -0.03125 4.347656 -0.265625 3.859375 -0.609375 C 3.367188 -0.953125 2.957031 -1.410156 2.625 -1.984375 C 1.90625 -3.242188 1.546875 -5.09375 1.546875 -7.53125 C 1.546875 -10.601562 2.09375 -12.6875 3.1875 -13.78125 C 3.726562 -14.320312 4.328125 -14.695312 4.984375 -14.90625 C 5.648438 -15.113281 6.585938 -15.21875 7.796875 -15.21875 C 9.003906 -15.21875 10.097656 -15.097656 11.078125 -14.859375 L 10.859375 -13.3125 C 9.234375 -13.5 8.035156 -13.59375 7.265625 -13.59375 C 5.847656 -13.59375 4.953125 -13.394531 4.578125 -13 C 3.859375 -12.257812 3.492188 -10.445312 3.484375 -7.5625 C 3.492188 -4.664062 3.875 -2.804688 4.625 -1.984375 Z M 4.625 -1.984375 "/></g></g></g><g fill="#ffffff" fill-opacity="1"><g transform="translate(39.822015, 73.702018)"><g><path d="M 3.984375 -8.34375 L 4.078125 0 L 2.25 0.015625 L 2.34375 -6.84375 L 2.25 -14.9375 L 4.078125 -14.9375 Z M 3.984375 -8.34375 "/></g></g></g><g fill="#ffffff" fill-opacity="1"><g transform="translate(47.108622, 73.702018)"><g><path d="M 7.21875 -13.59375 C 5.789062 -13.59375 4.914062 -13.394531 4.59375 -13 C 3.863281 -12.113281 3.5 -10.195312 3.5 -7.25 C 3.5 -5.84375 3.628906 -4.660156 3.890625 -3.703125 C 4.160156 -2.753906 4.472656 -2.109375 4.828125 -1.765625 C 5.179688 -1.421875 5.707031 -1.25 6.40625 -1.25 C 7.101562 -1.25 7.800781 -1.347656 8.5 -1.546875 C 9.195312 -1.742188 9.734375 -1.945312 10.109375 -2.15625 L 10.6875 -2.453125 L 11.3125 -1.03125 C 11.164062 -0.925781 10.96875 -0.800781 10.71875 -0.65625 C 10.46875 -0.519531 9.941406 -0.328125 9.140625 -0.078125 C 8.335938 0.160156 7.523438 0.28125 6.703125 0.28125 C 3.265625 0.28125 1.546875 -2.25 1.546875 -7.3125 C 1.546875 -10.894531 2.289062 -13.226562 3.78125 -14.3125 C 4.257812 -14.65625 4.757812 -14.890625 5.28125 -15.015625 C 5.800781 -15.148438 6.59375 -15.21875 7.65625 -15.21875 C 8.726562 -15.21875 9.738281 -15.101562 10.6875 -14.875 L 10.46875 -13.328125 C 9.15625 -13.503906 8.070312 -13.59375 7.21875 -13.59375 Z M 7.21875 -13.59375 "/></g></g></g><g fill="#0d9353" fill-opacity="1"><g transform="translate(60.590488, 73.702018)"><g><path d="M 2.015625 0 L 0.109375 0 L 4.328125 -14.9375 L 6.578125 -14.9375 L 10.796875 0 L 8.859375 0 L 7.828125 -4 L 3.078125 -4 Z M 7.484375 -5.5 L 5.5 -13.484375 L 5.375 -13.484375 L 3.390625 -5.5 Z M 7.484375 -5.5 "/></g></g></g><g clip-path="url(#8a4823dfa6)"><g clip-path="url(#ee7e240d0a)"><path fill="#15172e" d="M 65.449219 64.261719 L 67.023438 63.921875 L 68.558594 71.078125 L 66.984375 71.417969 Z M 65.449219 64.261719 " fill-opacity="1" fill-rule="nonzero"/></g></g><g clip-path="url(#36bc059a78)"><g clip-path="url(#d5dd0e9844)"><path fill="#15172e" d="M 64.558594 73.050781 L 62.996094 72.664062 L 64.753906 65.558594 L 66.316406 65.945312 Z M 64.558594 73.050781 " fill-opacity="1" fill-rule="nonzero"/></g></g><g clip-path="url(#999e813c8e)"><g clip-path="url(#64e5efe157)"><path fill="#15172e" d="M 67.003906 75.953125 L 64.835938 75.996094 L 64.660156 67.707031 L 66.828125 67.660156 Z M 67.003906 75.953125 " fill-opacity="1" fill-rule="nonzero"/></g></g><g clip-path="url(#6ea4a10758)"><g clip-path="url(#3d4bcc0f4c)"><path fill="#15172e" d="M 67.839844 67.070312 L 68.492188 70.761719 L 64.796875 71.414062 L 64.148438 67.71875 Z M 67.839844 67.070312 " fill-opacity="1" fill-rule="nonzero"/></g></g></svg>